grf
version=1
nRows=12
nColumns=37
inDegrees=no
endheader
time	ground_force_1_vx	ground_force_1_vy	ground_force_1_vz	ground_force_1_px	ground_force_1_py	ground_force_1_pz	ground_moment_1_mx	ground_moment_1_my	ground_moment_1_mz	ground_force_2_vx	ground_force_2_vy	ground_force_2_vz	ground_force_2_px	ground_force_2_py	ground_force_2_pz	ground_moment_2_mx	ground_moment_2_my	ground_moment_2_mz	ground_force_3_vx	ground_force_3_vy	ground_force_3_vz	ground_force_3_px	ground_force_3_py	ground_force_3_pz	ground_moment_3_mx	ground_moment_3_my	ground_moment_3_mz	ground_force_4_vx	ground_force_4_vy	ground_force_4_vz	ground_force_4_px	ground_force_4_py	ground_force_4_pz	ground_moment_4_mx	ground_moment_4_my	ground_moment_4_mz
      2.16000000	      0.00000000	     -0.00000000	      0.00000000	      0.00000000	      0.00000000	      0.00000000	      0.00000000	      0.00000000	      0.00000000	      0.12184769	     36.60052872	   -397.22836304	   -298.02345798	  -1091.90387872	      0.00000000	     -0.00000000	      0.00000000	   7028.31615971	     12.41135610	    -31.29022325	   -378.54449463	   -298.93815508	   -722.57078989	      0.00000000	     -0.00000000	     -0.00000000	  -5670.84005575	      0.00000000	     -0.00000000	      0.00000000	      0.00000000	      0.00000000	      0.00000000	      0.00000000	      0.00000000	      0.00000000
      2.17000000	      0.00000000	     -0.00000000	      0.00000000	      0.00000000	      0.00000000	      0.00000000	      0.00000000	      0.00000000	      0.00000000	      0.29188323	     36.50279617	   -392.22174072	   -296.59218996	  -1090.09939200	      0.00000000	     -0.00000000	      0.00000000	   7251.80869804	     12.29053892	    -31.18559563	   -383.11468506	   -298.41380051	   -722.44450895	      0.00000000	      0.00000000	     -0.00000000	  -5409.75104863	      0.00000000	     -0.00000000	      0.00000000	      0.00000000	      0.00000000	      0.00000000	      0.00000000	      0.00000000	      0.00000000
      2.18000000	      0.00000000	     -0.00000000	      0.00000000	      0.00000000	      0.00000000	      0.00000000	      0.00000000	      0.00000000	      0.00000000	      0.36486349	     35.98463821	   -392.54171753	   -296.65247873	  -1090.76408478	      0.00000000	      0.00000000	      0.00000000	   7433.63284279	     13.33121790	    -31.19351313	   -383.46310425	   -297.27165285	   -722.87208061	      0.00000000	      0.00000000	     -0.00000000	  -5554.62105287	      0.00000000	     -0.00000000	      0.00000000	      0.00000000	      0.00000000	      0.00000000	      0.00000000	      0.00000000	      0.00000000
      2.19000000	      0.00000000	     -0.00000000	      0.00000000	      0.00000000	      0.00000000	      0.00000000	      0.00000000	      0.00000000	      0.00000000	      0.38068274	     35.79072189	   -390.49114990	   -295.23748372	  -1091.01317389	      0.00000000	      0.00000000	      0.00000000	   7477.80375698	     13.02460395	    -31.54665298	   -386.44836426	   -297.01960405	   -721.73591157	      0.00000000	     -0.00000000	     -0.00000000	  -5698.44790648	      0.00000000	     -0.00000000	      0.00000000	      0.00000000	      0.00000000	      0.00000000	      0.00000000	      0.00000000	      0.00000000
      2.20000000	      0.00000000	     -0.00000000	      0.00000000	      0.00000000	      0.00000000	      0.00000000	      0.00000000	      0.00000000	      0.00000000	     -0.08921051	     35.21438599	   -389.78585815	   -293.43077986	  -1090.32960705	      0.00000000	      0.00000000	      0.00000000	   7610.79770823	     12.68563943	    -32.18044773	   -389.33505249	   -296.63938314	   -720.83370513	      0.00000000	      0.00000000	     -0.00000000	  -5656.29573724	      0.00000000	     -0.00000000	      0.00000000	      0.00000000	      0.00000000	      0.00000000	      0.00000000	      0.00000000	      0.00000000
      2.21000000	      0.00000000	     -0.00000000	      0.00000000	      0.00000000	      0.00000000	      0.00000000	      0.00000000	      0.00000000	      0.00000000	     -0.86866122	     35.44266891	   -392.99649048	   -293.22775006	  -1092.47407493	      0.00000000	     -0.00000000	      0.00000000	   7610.98250726	     11.99937630	    -32.67125044	   -390.38223267	   -295.53936928	   -721.05385613	      0.00000000	      0.00000000	     -0.00000000	  -5932.42374261	      0.00000000	     -0.00000000	      0.00000000	      0.00000000	      0.00000000	      0.00000000	      0.00000000	      0.00000000	      0.00000000
      2.22000000	      0.00000000	     -0.00000000	      0.00000000	      0.00000000	      0.00000000	      0.00000000	      0.00000000	      0.00000000	      0.00000000	     -1.50110018	     34.35387039	   -393.90368652	   -293.02311877	  -1090.38061254	      0.00000000	      0.00000000	      0.00000000	   7689.32494909	     11.70208735	    -33.36250026	   -392.21902466	   -294.92379586	   -722.02891122	      0.00000000	     -0.00000000	     -0.00000000	  -5842.52958712	      0.00000000	     -0.00000000	      0.00000000	      0.00000000	      0.00000000	      0.00000000	      0.00000000	      0.00000000	      0.00000000
      2.23000000	      0.00000000	     -0.00000000	      0.00000000	      0.00000000	      0.00000000	      0.00000000	      0.00000000	      0.00000000	      0.00000000	     -2.45185280	     34.36600113	   -394.11843872	   -292.46715278	  -1090.41777973	      0.00000000	      0.00000000	      0.00000000	   7618.37121490	     11.20822614	    -33.40086463	   -395.23962402	   -294.67101267	   -721.42072866	      0.00000000	      0.00000000	     -0.00000000	  -5925.18874381	      0.00000000	     -0.00000000	      0.00000000	      0.00000000	      0.00000000	      0.00000000	      0.00000000	      0.00000000	      0.00000000
      2.24000000	      0.00000000	     -0.00000000	      0.00000000	      0.00000000	      0.00000000	      0.00000000	      0.00000000	      0.00000000	      0.00000000	     -2.63064861	     34.64131165	   -396.79345703	   -290.93276116	  -1092.09371389	      0.00000000	      0.00000000	      0.00000000	   7765.08190521	     10.82271285	    -33.33514117	   -397.04528809	   -293.90618420	   -721.53949438	      0.00000000	     -0.00000000	     -0.00000000	  -6041.85009989	      0.00000000	     -0.00000000	      0.00000000	      0.00000000	      0.00000000	      0.00000000	      0.00000000	      0.00000000	      0.00000000
      2.25000000	      0.00000000	     -0.00000000	      0.00000000	      0.00000000	      0.00000000	      0.00000000	      0.00000000	      0.00000000	      0.00000000	     -3.31464219	     33.95868683	   -395.44705200	   -289.70427880	  -1091.76793804	      0.00000000	      0.00000000	      0.00000000	   7823.48332163	     10.64529127	    -33.36310670	   -397.71334839	   -293.58542715	   -720.60470115	      0.00000000	      0.00000000	     -0.00000000	  -6049.25978910	      0.00000000	     -0.00000000	      0.00000000	      0.00000000	      0.00000000	      0.00000000	      0.00000000	      0.00000000	      0.00000000
      2.26000000	      0.00000000	     -0.00000000	      0.00000000	      0.00000000	      0.00000000	      0.00000000	      0.00000000	      0.00000000	      0.00000000	     -3.38295817	     33.72860718	   -393.82522583	   -288.75350901	  -1089.98022490	      0.00000000	      0.00000000	      0.00000000	   7984.36445551	     11.02912421	    -33.30471135	   -397.74249268	   -293.00903132	   -721.44861479	      0.00000000	      0.00000000	     -0.00000000	  -6202.65233815	      0.00000000	     -0.00000000	      0.00000000	      0.00000000	      0.00000000	      0.00000000	      0.00000000	      0.00000000	      0.00000000
      2.27000000	      0.00000000	     -0.00000000	      0.00000000	      0.00000000	      0.00000000	      0.00000000	      0.00000000	      0.00000000	      0.00000000	     -4.27470922	     33.51256943	   -395.12054443	   -287.88956285	  -1091.74818383	      0.00000000	      0.00000000	      0.00000000	   8042.14759010	     11.22192095	    -32.91455939	   -397.74188232	   -293.05475059	   -721.79549897	      0.00000000	     -0.00000000	     -0.00000000	  -6248.04028963	      0.00000000	     -0.00000000	      0.00000000	      0.00000000	      0.00000000	      0.00000000	      0.00000000	      0.00000000	      0.00000000
